<svg width="80" height="14" viewBox="0 0 80 14" fill="none" xmlns="http://www.w3.org/2000/svg">
<path d="M3.588 11.688C3.25733 11.6773 2.91067 11.592 2.548 11.432C2.196 11.272 1.89733 11.0373 1.652 10.728C1.40667 10.408 1.284 10.0187 1.284 9.56C1.284 9.08 1.42267 8.62133 1.7 8.184C1.988 7.736 2.37733 7.33067 2.868 6.968C3.35867 6.60533 3.91333 6.296 4.532 6.04C5.15067 5.77333 5.796 5.58667 6.468 5.48C7.09733 5.384 7.54533 5.336 7.812 5.336C8.14267 5.336 8.308 5.384 8.308 5.48C8.308 5.55467 8.20667 5.64533 8.004 5.752C7.80133 5.85867 7.59333 5.93333 7.38 5.976C6.78267 6.08267 6.20667 6.22667 5.652 6.408C5.09733 6.58933 4.63333 6.78667 4.26 7C4.47333 6.904 4.68133 6.81867 4.884 6.744C5.08667 6.66933 5.34267 6.58933 5.652 6.504C5.96133 6.408 6.38267 6.28533 6.916 6.136C6.628 6.232 6.27067 6.37067 5.844 6.552C5.428 6.72267 4.99067 6.92533 4.532 7.16C4.07333 7.384 3.64133 7.62933 3.236 7.896C2.84133 8.16267 2.516 8.43467 2.26 8.712C2.01467 8.97867 1.892 9.23467 1.892 9.48C1.892 9.832 2.03067 10.0773 2.308 10.216C2.58533 10.344 2.87333 10.408 3.172 10.408C3.556 10.408 3.98267 10.328 4.452 10.168C4.932 10.008 5.42267 9.8 5.924 9.544C6.436 9.288 6.932 9.00533 7.412 8.696C7.892 8.38667 8.32933 8.08267 8.724 7.784C9.11867 7.47467 9.444 7.19733 9.7 6.952C9.156 6.984 8.884 6.93067 8.884 6.792C8.884 6.71733 8.996 6.64267 9.22 6.568C9.444 6.49333 9.75867 6.45067 10.164 6.44C11.2413 5.42667 12.116 4.61067 12.788 3.992C13.4707 3.37333 14.004 2.89333 14.388 2.552C14.7827 2.2 15.0813 1.944 15.284 1.784C15.2093 1.83733 15.076 1.93333 14.884 2.072C14.7027 2.21067 14.5267 2.344 14.356 2.472C14.1853 2.58933 14.0733 2.648 14.02 2.648L15.524 1.464C15.3747 1.41067 15.1987 1.37333 14.996 1.352C14.7933 1.33067 14.5693 1.32 14.324 1.32C13.7373 1.32 13.092 1.37867 12.388 1.496C11.6947 1.60267 11.0493 1.72 10.452 1.848C10.3453 1.86933 10.164 1.928 9.908 2.024C9.652 2.10933 9.35867 2.22133 9.028 2.36C8.708 2.49867 8.388 2.65867 8.068 2.84C7.748 3.02133 7.47067 3.21867 7.236 3.432C7.012 3.63467 6.868 3.848 6.804 4.072C6.84667 4.15733 6.868 4.23733 6.868 4.312C6.868 4.46133 6.79333 4.536 6.644 4.536C6.516 4.536 6.37733 4.46133 6.228 4.312C6.07867 4.16267 6.004 3.95467 6.004 3.688C6.004 3.54933 6.02533 3.416 6.068 3.288C6.17467 2.94667 6.37733 2.632 6.676 2.344L6.612 2.376L6.708 2.312L6.676 2.344C7.156 2.07733 7.668 1.82133 8.212 1.576C8.76667 1.32 9.38533 1.112 10.068 0.952C10.7507 0.781333 11.524 0.695999 12.388 0.695999C12.8573 0.695999 13.3533 0.727999 13.876 0.792C14.3987 0.845333 14.9533 0.936 15.54 1.064C15.5827 1.07467 15.6147 1.08 15.636 1.08C15.668 1.08 15.6947 1.08 15.716 1.08C15.3107 0.930667 14.8307 0.829333 14.276 0.775999C13.732 0.711999 13.1773 0.679999 12.612 0.679999C12.068 0.679999 11.5453 0.706666 11.044 0.759999C10.5427 0.802666 10.116 0.861333 9.764 0.936C9.58267 0.978667 9.39067 1.02667 9.188 1.08C8.98533 1.13333 8.77733 1.20267 8.564 1.288C9.14 1.064 9.75333 0.893333 10.404 0.775999C11.0547 0.658666 11.748 0.599999 12.484 0.599999C13.4867 0.599999 14.5533 0.712 15.684 0.936C15.7693 0.946666 15.8173 0.973333 15.828 1.016C15.8387 1.05867 15.8013 1.08 15.716 1.08C15.78 1.10133 15.844 1.128 15.908 1.16C15.972 1.18133 16.0253 1.208 16.068 1.24C16.1533 1.19733 16.2547 1.176 16.372 1.176C16.6173 1.176 16.8307 1.27733 17.012 1.48C17.204 1.68267 17.2893 1.912 17.268 2.168C17.268 2.21067 17.188 2.344 17.028 2.568C16.8787 2.792 16.6813 3.06933 16.436 3.4C16.1907 3.73067 15.9293 4.08267 15.652 4.456C15.3747 4.81867 15.1027 5.176 14.836 5.528C14.58 5.86933 14.356 6.168 14.164 6.424C13.972 6.68 13.8493 6.856 13.796 6.952C14.02 7.02667 14.1587 7.07467 14.212 7.096C14.2653 7.10667 14.3293 7.13867 14.404 7.192C14.468 7.23467 14.4573 7.27733 14.372 7.32C14.2973 7.352 14.1907 7.37867 14.052 7.4C13.924 7.41067 13.812 7.41067 13.716 7.4C13.6733 7.44267 13.5987 7.576 13.492 7.8C13.396 8.01333 13.3053 8.18933 13.22 8.328C13.2733 8.17867 13.348 8.008 13.444 7.816C13.5507 7.61333 13.604 7.45867 13.604 7.352C13.252 8.00267 13.0013 8.53067 12.852 8.936C12.7133 9.34133 12.6333 9.66133 12.612 9.896C12.5907 10.1307 12.58 10.3173 12.58 10.456C12.5907 10.5947 12.6387 10.744 12.724 10.904C12.8093 11.0533 12.852 11.1707 12.852 11.256C12.852 11.3307 12.788 11.368 12.66 11.368C12.34 11.3573 12.1 11.192 11.94 10.872C11.7907 10.5413 11.716 10.1893 11.716 9.816C11.716 9.50667 11.7587 9.144 11.844 8.728C11.94 8.312 12.1 7.85333 12.324 7.352C12.292 7.448 12.244 7.592 12.18 7.784C12.1267 7.96533 12.0947 8.08267 12.084 8.136C12.1267 8.06133 12.18 7.944 12.244 7.784C12.308 7.624 12.3667 7.47467 12.42 7.336C12.4733 7.19733 12.5 7.12267 12.5 7.112C12.4253 7.10133 12.228 7.07467 11.908 7.032C11.588 6.98933 11.2733 6.952 10.964 6.92C10.6973 7.19733 10.4093 7.50133 10.1 7.832C9.79067 8.152 9.46 8.47733 9.108 8.808C9.31067 8.63733 9.50267 8.46133 9.684 8.28C9.876 8.09867 10.0627 7.91733 10.244 7.736C10.2653 7.71467 10.2813 7.704 10.292 7.704C10.3027 7.704 10.2813 7.736 10.228 7.8C10.1853 7.85333 10.1373 7.90667 10.084 7.96C9.62533 8.46133 9.16133 8.904 8.692 9.288C8.23333 9.672 7.78533 10.008 7.348 10.296C7.65733 10.0827 7.96133 9.848 8.26 9.592C8.55867 9.336 8.84133 9.07467 9.108 8.808C8.41467 9.40533 7.684 9.928 6.916 10.376C6.15867 10.824 5.364 11.1813 4.532 11.448C4.38267 11.4907 4.19067 11.5387 3.956 11.592C3.732 11.6453 3.60933 11.6773 3.588 11.688ZM6.708 2.312C6.92133 2.12 7.16133 1.94933 7.428 1.8C7.69467 1.65067 7.972 1.51733 8.26 1.4C8.004 1.50667 7.75867 1.63467 7.524 1.784C7.3 1.92267 7.076 2.06667 6.852 2.216L6.708 2.312ZM12.756 6.664C12.884 6.39733 13.0547 6.09867 13.268 5.768C13.4813 5.42667 13.7107 5.08 13.956 4.728C14.212 4.36533 14.4573 4.024 14.692 3.704C14.9373 3.37333 15.156 3.09067 15.348 2.856C15.0493 3.05867 14.772 3.256 14.516 3.448C14.2707 3.62933 14.004 3.848 13.716 4.104C13.4387 4.34933 13.1027 4.664 12.708 5.048C12.3133 5.432 11.828 5.92267 11.252 6.52C11.3373 6.52 11.4813 6.53067 11.684 6.552C11.8973 6.57333 12.1053 6.59467 12.308 6.616C12.5213 6.63733 12.6707 6.65333 12.756 6.664ZM12.34 7.336C12.34 7.32533 12.3453 7.31467 12.356 7.304C12.3667 7.28267 12.372 7.272 12.372 7.272C12.372 7.272 12.3667 7.28267 12.356 7.304C12.3453 7.31467 12.34 7.32533 12.34 7.336ZM7.012 10.504C7.012 10.504 7.01733 10.4987 7.028 10.488L7.348 10.296C7.316 10.3173 7.26267 10.3493 7.188 10.392C7.11333 10.4347 7.06 10.4667 7.028 10.488L7.012 10.504ZM3.62 11.688C4.132 11.624 4.66533 11.5067 5.22 11.336C5.77467 11.1653 6.33467 10.9147 6.9 10.584C6.37733 10.8933 5.83867 11.1547 5.284 11.368C4.74 11.5813 4.18533 11.688 3.62 11.688ZM17.8169 11.08C17.7102 11.08 17.5929 11.0373 17.4649 10.952C17.3475 10.8667 17.2409 10.776 17.1449 10.68C17.0595 10.5733 17.0169 10.4827 17.0169 10.408C17.0169 10.344 17.0329 10.312 17.0649 10.312C17.0862 10.312 17.1182 10.3227 17.1609 10.344C17.2035 10.3547 17.2515 10.3707 17.3049 10.392C17.2729 10.3173 17.2462 10.248 17.2249 10.184C17.2035 10.12 17.1929 10.056 17.1929 9.992C17.1929 9.98133 17.2462 9.87467 17.3529 9.672C17.4595 9.45867 17.5929 9.20267 17.7529 8.904C17.9129 8.60533 18.0782 8.30133 18.2489 7.992C18.4195 7.672 18.5689 7.39467 18.6969 7.16C18.8249 6.92533 18.9049 6.77067 18.9369 6.696L18.9049 6.744C18.8515 6.82933 18.7662 6.968 18.6489 7.16C18.5315 7.34133 18.4089 7.53333 18.2809 7.736C18.1529 7.93867 18.0462 8.10933 17.9609 8.248C17.8755 8.38667 17.8329 8.45067 17.8329 8.44C17.8862 8.28 17.9555 8.104 18.0409 7.912C18.1262 7.72 18.2382 7.496 18.3769 7.24C17.9609 7.64533 17.5129 8.08267 17.0329 8.552C16.5635 9.02133 16.1315 9.47467 15.7369 9.912C15.3422 10.3387 15.0435 10.7013 14.8409 11C14.6062 10.7973 14.4409 10.6107 14.3449 10.44C14.2595 10.2693 14.2169 10.104 14.2169 9.944C14.2169 9.88 14.2275 9.816 14.2489 9.752C14.2595 9.688 14.2702 9.624 14.2809 9.56C14.3449 9.336 14.5102 9 14.7769 8.552C15.0542 8.104 15.3902 7.592 15.7849 7.016C16.1795 6.44 16.6009 5.84267 17.0489 5.224C17.4969 4.60533 17.9289 4.01333 18.3449 3.448C18.7609 2.88267 19.1289 2.38667 19.4489 1.96C19.7689 1.53333 19.9929 1.22933 20.1209 1.048C20.1209 1.03733 20.1155 1.032 20.1049 1.032C20.0942 1.032 20.0675 1.048 20.0249 1.08C19.9822 1.112 19.9182 1.18133 19.8329 1.288C19.5982 1.58667 19.3582 1.89067 19.1129 2.2C18.8675 2.50933 18.6435 2.792 18.4409 3.048C18.2382 3.304 18.0729 3.50667 17.9449 3.656C17.8169 3.80533 17.7529 3.87467 17.7529 3.864C17.7529 3.85333 17.8275 3.736 17.9769 3.512C18.1369 3.288 18.3289 3.016 18.5529 2.696C18.7875 2.376 19.0222 2.056 19.2569 1.736C19.4915 1.416 19.6889 1.14933 19.8489 0.936C20.0089 0.722666 20.0942 0.615999 20.1049 0.615999H20.1209C20.1635 0.615999 20.2169 0.631999 20.2809 0.664C20.3555 0.696 20.4142 0.722666 20.4569 0.743999C20.5422 0.765333 20.6595 0.839999 20.8089 0.967999C20.9689 1.096 21.1022 1.24 21.2089 1.4C21.3262 1.54933 21.3635 1.68267 21.3209 1.8C21.1929 1.928 20.9902 2.152 20.7129 2.472C20.4355 2.792 20.1049 3.17067 19.7209 3.608C19.3475 4.04533 18.9529 4.51467 18.5369 5.016C18.1209 5.50667 17.7102 5.99733 17.3049 6.488C16.8995 6.968 16.5262 7.416 16.1849 7.832C15.8435 8.23733 15.5662 8.57867 15.3529 8.856C15.1395 9.13333 15.0169 9.304 14.9849 9.368C15.0809 9.31467 15.2675 9.176 15.5449 8.952C15.8329 8.728 16.1635 8.456 16.5369 8.136C16.9209 7.80533 17.3155 7.45867 17.7209 7.096C18.1262 6.73333 18.5049 6.38133 18.8569 6.04C19.2089 5.69867 19.4969 5.41067 19.7209 5.176L19.9129 4.92C20.0515 4.97333 20.2009 5.048 20.3609 5.144C20.5315 5.22933 20.6755 5.32533 20.7929 5.432C20.9209 5.528 20.9849 5.62933 20.9849 5.736C20.9849 5.768 20.9689 5.81067 20.9369 5.864C20.4142 6.6 19.9875 7.20267 19.6569 7.672C19.3262 8.13067 19.1342 8.41333 19.0809 8.52C19.2089 8.456 19.3902 8.34933 19.6249 8.2C19.8595 8.04 20.1262 7.86933 20.4249 7.688C20.7662 7.47467 21.1182 7.256 21.4809 7.032C21.8542 6.808 22.2222 6.62133 22.5849 6.472C22.6702 6.44 22.6702 6.456 22.5849 6.52C22.5102 6.584 22.4035 6.664 22.2649 6.76C22.1262 6.84533 22.0089 6.91467 21.9129 6.968C22.0835 6.88267 22.2275 6.81867 22.3449 6.776C22.4729 6.72267 22.6382 6.65333 22.8409 6.568C22.9369 6.52533 23.0169 6.504 23.0809 6.504C23.1555 6.504 23.1662 6.54133 23.1129 6.616C23.0595 6.69067 22.9742 6.78133 22.8569 6.888C22.7502 6.984 22.6435 7.064 22.5369 7.128C22.4089 7.20267 22.1742 7.36267 21.8329 7.608C21.4915 7.85333 21.1075 8.136 20.6809 8.456C20.2649 8.76533 19.8702 9.06933 19.4969 9.368C19.3155 9.50667 19.1449 9.65067 18.9849 9.8C18.8249 9.94933 18.6809 10.088 18.5529 10.216C18.5955 10.2267 18.6382 10.2533 18.6809 10.296C18.7342 10.3387 18.7609 10.3867 18.7609 10.44C18.7609 10.5147 18.6969 10.6053 18.5689 10.712C18.4409 10.808 18.3022 10.8933 18.1529 10.968C18.0035 11.0427 17.8915 11.08 17.8169 11.08ZM18.9689 8.856C19.1075 8.73867 19.3315 8.57867 19.6409 8.376C19.9609 8.16267 20.3022 7.93867 20.6649 7.704C21.0382 7.46933 21.3635 7.272 21.6409 7.112C21.4062 7.21867 21.1502 7.352 20.8729 7.512C20.5955 7.66133 20.3662 7.79467 20.1849 7.912C19.9182 8.08267 19.6942 8.22667 19.5129 8.344C19.3315 8.45067 19.1822 8.56267 19.0649 8.68C19.0329 8.70133 19.0009 8.744 18.9689 8.808C18.9369 8.86133 18.9369 8.87733 18.9689 8.856ZM21.5508 11.784C21.4548 11.784 21.3428 11.736 21.2148 11.64C21.0868 11.544 20.9694 11.4373 20.8628 11.32C20.7668 11.2027 20.7188 11.1067 20.7188 11.032C20.7188 10.968 20.7401 10.936 20.7828 10.936C20.8254 10.936 20.8841 10.952 20.9588 10.984C21.0334 11.016 21.1294 11.032 21.2467 11.032C21.1828 10.9467 21.1348 10.8507 21.1028 10.744C21.0708 10.6267 21.0548 10.52 21.0548 10.424C21.0548 10.264 21.1348 10.0187 21.2948 9.688C21.4654 9.35733 21.6788 8.984 21.9348 8.568C22.2014 8.152 22.4681 7.74133 22.7348 7.336C23.0121 6.93067 23.2628 6.57333 23.4868 6.264C23.7108 5.944 23.8708 5.72 23.9668 5.592C23.6788 5.92267 23.4441 6.2 23.2628 6.424C23.0814 6.63733 22.9801 6.744 22.9588 6.744C22.9374 6.744 23.0281 6.58933 23.2308 6.28C23.4334 5.97067 23.7908 5.44267 24.3028 4.696C24.4094 4.696 24.5481 4.74933 24.7188 4.856C24.9001 4.96267 25.0601 5.08533 25.1988 5.224C25.3481 5.36267 25.4227 5.49067 25.4227 5.608C25.2948 5.82133 25.0921 6.104 24.8148 6.456C24.5374 6.79733 24.2441 7.14933 23.9348 7.512C23.6254 7.87467 23.3588 8.19467 23.1348 8.472C23.1774 8.44 23.3161 8.31733 23.5508 8.104C23.7854 7.89067 24.0681 7.64 24.3988 7.352C24.7401 7.064 25.0814 6.776 25.4227 6.488C25.7748 6.2 26.0841 5.96 26.3508 5.768C26.6174 5.576 26.7881 5.47467 26.8628 5.464C26.9161 5.464 27.0014 5.50667 27.1188 5.592C27.2361 5.67733 27.3534 5.784 27.4708 5.912C27.5881 6.02933 27.6788 6.14667 27.7428 6.264C27.8174 6.37067 27.8388 6.45067 27.8068 6.504C27.7321 6.61067 27.5934 6.81867 27.3908 7.128C27.1988 7.42667 26.9854 7.768 26.7508 8.152C26.5268 8.536 26.3241 8.904 26.1428 9.256C26.2814 9.14933 26.4681 8.97333 26.7028 8.728C26.9481 8.472 27.2254 8.17867 27.5348 7.848C27.8441 7.50667 28.1641 7.16533 28.4948 6.824C28.8254 6.472 29.1454 6.14133 29.4548 5.832C29.7748 5.52267 30.0628 5.272 30.3188 5.08L30.3828 5.032L30.4468 4.952C30.5001 4.952 30.5801 5 30.6868 5.096C30.7934 5.192 30.9001 5.30933 31.0068 5.448C31.1134 5.58667 31.1934 5.71467 31.2468 5.832C31.3108 5.94933 31.3214 6.03467 31.2788 6.088C31.2148 6.16267 31.0868 6.328 30.8948 6.584C30.7028 6.84 30.4788 7.144 30.2228 7.496C29.9668 7.848 29.7161 8.20533 29.4708 8.568C29.2361 8.92 29.0388 9.23467 28.8788 9.512L30.2068 8.664C30.3134 8.6 30.3134 8.60533 30.2068 8.68C30.1001 8.75467 29.9614 8.856 29.7908 8.984C29.6308 9.10133 29.5081 9.19733 29.4228 9.272C29.3908 9.304 29.3481 9.35733 29.2948 9.432C29.2521 9.50667 29.2468 9.528 29.2788 9.496C29.4494 9.34667 29.6681 9.176 29.9348 8.984C30.2121 8.792 30.4948 8.6 30.7828 8.408C31.0708 8.20533 31.3321 8.02933 31.5668 7.88C31.3641 7.98667 31.1561 8.09867 30.9428 8.216C30.7294 8.32267 30.5161 8.45067 30.3028 8.6L30.5908 8.392C30.7081 8.30667 30.8681 8.20533 31.0708 8.088C31.2734 7.96 31.4761 7.84267 31.6788 7.736C31.8814 7.61867 32.0308 7.544 32.1268 7.512L31.5668 7.88L32.4148 7.48C32.4681 7.45867 32.5108 7.44267 32.5428 7.432C32.5748 7.42133 32.6014 7.416 32.6228 7.416C32.7294 7.416 32.7348 7.48533 32.6388 7.624C32.5534 7.76267 32.4308 7.87467 32.2708 7.96C32.0148 8.088 31.7108 8.29067 31.3588 8.568C31.0174 8.83467 30.6548 9.13867 30.2708 9.48C29.8974 9.81067 29.5348 10.1413 29.1828 10.472C28.8414 10.792 28.5481 11.08 28.3028 11.336C28.0681 11.1227 27.9454 10.92 27.9348 10.728C27.9348 10.536 27.9294 10.3547 27.9188 10.184C27.9188 10.152 27.9774 10.0187 28.0948 9.784C28.0734 9.67733 28.0734 9.576 28.0948 9.48C28.1054 9.32 28.1748 9.06933 28.3028 8.728C28.4308 8.376 28.6068 7.98133 28.8308 7.544C29.0548 7.096 29.3001 6.65333 29.5668 6.216C29.2894 6.52533 28.9801 6.872 28.6388 7.256C28.2974 7.64 27.9561 8.02933 27.6148 8.424C27.2841 8.81867 26.9908 9.18133 26.7348 9.512C26.4788 9.84267 26.2974 10.1147 26.1908 10.328C26.1054 10.3813 26.0254 10.408 25.9508 10.408C25.8868 10.408 25.8174 10.3813 25.7428 10.328C25.6681 10.3173 25.5988 10.248 25.5348 10.12C25.4814 9.98133 25.4388 9.816 25.4068 9.624C25.4068 9.656 25.4014 9.69333 25.3908 9.736C25.3801 9.768 25.3748 9.8 25.3748 9.832V9.848C25.3641 9.848 25.3534 9.81067 25.3428 9.736C25.3321 9.66133 25.3321 9.60267 25.3428 9.56L25.3908 9.304V9.352C25.3908 9.39467 25.3908 9.43733 25.3908 9.48C25.4014 9.52267 25.4068 9.57067 25.4068 9.624C25.4708 9.31467 25.5561 8.97333 25.6628 8.6C25.7801 8.216 25.8921 7.85867 25.9988 7.528C26.1161 7.19733 26.1961 6.952 26.2388 6.792C26.1854 6.888 26.1108 7.04267 26.0148 7.256C25.9294 7.46933 25.8441 7.69333 25.7588 7.928C25.6841 8.152 25.6254 8.328 25.5828 8.456C25.5188 8.69067 25.4761 8.86133 25.4548 8.968C25.4334 9.064 25.4121 9.17067 25.3908 9.288C25.3908 9.11733 25.4174 8.89867 25.4708 8.632C25.5348 8.36533 25.6094 8.088 25.6948 7.8C25.7908 7.512 25.8814 7.25067 25.9668 7.016C26.0521 6.78133 26.1161 6.616 26.1588 6.52C25.9988 6.68 25.7374 6.93067 25.3748 7.272C25.0228 7.60267 24.6334 7.98133 24.2068 8.408C23.7908 8.824 23.3854 9.24533 22.9908 9.672C22.6068 10.088 22.2921 10.4613 22.0468 10.792C22.0894 10.7813 22.1428 10.776 22.2068 10.776C22.2921 10.776 22.3828 10.8027 22.4788 10.856C22.5748 10.9093 22.6228 10.9787 22.6228 11.064C22.6228 11.1387 22.5588 11.2293 22.4308 11.336C22.3028 11.4533 22.1534 11.5547 21.9828 11.64C21.8121 11.736 21.6681 11.784 21.5508 11.784ZM33.0294 11.112C32.7947 11.112 32.544 11.0213 32.2774 10.84C32.0107 10.6587 31.7814 10.4453 31.5894 10.2C31.408 9.95467 31.3174 9.73067 31.3174 9.528C31.3174 9.144 31.4294 8.73333 31.6534 8.296C31.888 7.848 32.1867 7.41067 32.5494 6.984C32.9227 6.55733 33.3174 6.17867 33.7334 5.848C34.1494 5.51733 34.5494 5.27733 34.9334 5.128C35.04 5.08533 35.136 5.05867 35.2214 5.048C35.3067 5.03733 35.3707 5.032 35.4134 5.032C35.5414 5.032 35.6907 5.12267 35.8614 5.304C36.032 5.47467 36.1867 5.66133 36.3254 5.864C36.464 6.06667 36.544 6.22133 36.5654 6.328C36.5654 6.49867 36.464 6.70667 36.2614 6.952C36.0694 7.18667 35.8134 7.432 35.4934 7.688C35.1734 7.93333 34.8267 8.16267 34.4534 8.376C34.0907 8.58933 33.7387 8.76 33.3974 8.888C33.056 9.00533 32.7627 9.05867 32.5174 9.048C32.3467 9.35733 32.2614 9.61333 32.2614 9.816C32.2614 9.92267 32.288 10.0187 32.3414 10.104C32.3947 10.1787 32.5014 10.2107 32.6614 10.2C32.9174 10.1147 33.2374 9.96 33.6214 9.736C34.0054 9.512 34.416 9.26133 34.8534 8.984C35.3014 8.696 35.7387 8.41867 36.1654 8.152C36.6027 7.87467 36.992 7.64533 37.3334 7.464C37.5147 7.368 37.648 7.32 37.7334 7.32C37.808 7.32 37.8454 7.34667 37.8454 7.4C37.8454 7.44267 37.7974 7.512 37.7014 7.608C37.616 7.704 37.4827 7.8 37.3014 7.896C37.2054 7.94933 37.0987 8.01333 36.9814 8.088C36.864 8.16267 36.7414 8.248 36.6134 8.344C36.3147 8.55733 35.9947 8.80267 35.6534 9.08C35.3227 9.35733 34.9867 9.63467 34.6454 9.912C34.3147 10.1893 34.0054 10.4347 33.7174 10.648C33.44 10.8613 33.2107 11.016 33.0294 11.112ZM32.8534 8.52C33.1734 8.40267 33.5147 8.23733 33.8774 8.024C34.24 7.81067 34.5814 7.58667 34.9014 7.352C35.2214 7.10667 35.4774 6.888 35.6694 6.696L35.7494 6.616C35.7494 6.59467 35.6854 6.632 35.5574 6.728L34.2134 7.72C34.2027 7.73067 34.1867 7.736 34.1654 7.736C34.1547 7.736 34.16 7.72533 34.1814 7.704C34.2027 7.672 34.24 7.64 34.2934 7.608C34.5067 7.45867 34.7254 7.29333 34.9494 7.112C35.1734 6.92 35.3867 6.73867 35.5894 6.568C35.8454 6.36533 35.9734 6.24267 35.9734 6.2C35.728 6.2 35.4134 6.31733 35.0294 6.552C34.6454 6.78667 34.256 7.08 33.8614 7.432C33.4774 7.784 33.1414 8.14667 32.8534 8.52ZM37.2104 11.48C37.1464 11.48 37.0504 11.448 36.9224 11.384C36.7944 11.3307 36.677 11.256 36.5704 11.16C36.4744 11.064 36.4264 10.9733 36.4264 10.888C36.4264 10.8347 36.453 10.7653 36.5064 10.68L36.5224 10.648C36.373 10.4453 36.2877 10.2907 36.2664 10.184C36.3944 9.71467 36.6024 9.24 36.8904 8.76C37.1784 8.26933 37.4877 7.8 37.8184 7.352C37.6477 7.52267 37.4877 7.69867 37.3384 7.88C37.1997 8.05067 37.077 8.18933 36.9704 8.296C37.1517 8.01867 37.3864 7.72533 37.6744 7.416C37.9624 7.10667 38.2237 6.81867 38.4584 6.552C38.3517 6.68 38.245 6.808 38.1384 6.936C38.0317 7.064 37.925 7.20267 37.8184 7.352C37.8824 7.288 37.941 7.224 37.9944 7.16C38.0584 7.096 38.1224 7.03733 38.1864 6.984C38.2504 6.92 38.3517 6.81333 38.4904 6.664C38.6397 6.51467 38.7997 6.34933 38.9704 6.168C39.1517 5.98667 39.317 5.82133 39.4664 5.672C39.6264 5.52267 39.749 5.42133 39.8344 5.368C39.973 5.272 40.005 5.224 39.9304 5.224C39.877 5.224 39.7864 5.27733 39.6584 5.384C39.541 5.49067 39.4237 5.60267 39.3064 5.72C39.1997 5.83733 39.1304 5.912 39.0984 5.944L38.4584 6.552C38.7677 6.2 39.0557 5.88533 39.3224 5.608C39.5997 5.32 39.829 5.09067 40.0104 4.92C40.2344 4.93067 40.4797 4.98933 40.7464 5.096C41.013 5.192 41.2424 5.336 41.4344 5.528C41.765 5.83733 41.9624 6.16267 42.0264 6.504C42.3997 5.98133 42.7784 5.45333 43.1624 4.92C43.557 4.376 43.9304 3.864 44.2824 3.384C44.645 2.904 44.9597 2.488 45.2264 2.136C45.493 1.77333 45.685 1.50667 45.8024 1.336C45.7704 1.28267 45.7384 1.23467 45.7064 1.192C45.6744 1.14933 45.6584 1.112 45.6584 1.08C45.6584 1.016 45.749 0.989333 45.9304 1C46.0797 1.01067 46.2504 1.07467 46.4424 1.192C46.645 1.30933 46.8157 1.44267 46.9544 1.592C47.093 1.73067 47.141 1.85867 47.0984 1.976C46.9704 2.104 46.7624 2.328 46.4744 2.648C46.1864 2.968 45.845 3.34667 45.4504 3.784C45.0664 4.22133 44.661 4.69067 44.2344 5.192C43.8077 5.68267 43.3917 6.168 42.9864 6.648C42.9224 6.72267 42.8157 6.86667 42.6664 7.08C42.517 7.29333 42.3464 7.54933 42.1544 7.848C41.9624 8.136 41.7757 8.44533 41.5944 8.776C41.4237 9.096 41.2797 9.41067 41.1624 9.72C41.045 10.0187 40.9864 10.2747 40.9864 10.488C40.9864 10.776 41.0877 10.9467 41.2904 11C41.429 11.0427 41.4984 11.0853 41.4984 11.128C41.4984 11.1813 41.4237 11.208 41.2744 11.208C41.157 11.208 41.029 11.1867 40.8904 11.144C40.6344 11.0693 40.453 10.9467 40.3464 10.776C40.2504 10.5947 40.2024 10.3973 40.2024 10.184C40.2024 9.864 40.2717 9.53333 40.4104 9.192C40.5597 8.84 40.6984 8.54667 40.8264 8.312C40.4957 8.62133 40.1277 8.968 39.7224 9.352C39.317 9.72533 38.9277 10.072 38.5544 10.392C38.5757 10.392 38.597 10.4027 38.6184 10.424C38.661 10.4453 38.6237 10.5147 38.5064 10.632C38.3997 10.7387 38.2557 10.8613 38.0744 11C37.893 11.128 37.717 11.24 37.5464 11.336C37.3864 11.432 37.2744 11.48 37.2104 11.48ZM37.7864 10.232C37.9357 10.136 38.1437 9.992 38.4104 9.8C38.677 9.59733 38.9757 9.368 39.3064 9.112C39.6477 8.84533 39.9944 8.568 40.3464 8.28C40.6984 7.98133 41.0237 7.69867 41.3224 7.432C41.2797 7.41067 41.2584 7.36267 41.2584 7.288C41.2584 7.21333 41.2797 7.13333 41.3224 7.048C41.4184 6.86667 41.4877 6.70667 41.5304 6.568C41.573 6.42933 41.5944 6.30667 41.5944 6.2C41.5944 5.944 41.493 5.816 41.2904 5.816C41.1304 5.816 40.949 5.896 40.7464 6.056C40.565 6.19467 40.3357 6.408 40.0584 6.696C39.781 6.97333 39.493 7.288 39.1944 7.64C38.9064 7.98133 38.6344 8.32267 38.3784 8.664C38.133 8.99467 37.941 9.29333 37.8024 9.56C37.6744 9.816 37.6317 10.0027 37.6744 10.12L40.0904 8.344C40.1117 8.32267 40.1277 8.30667 40.1384 8.296C40.1597 8.28533 40.1704 8.28 40.1704 8.28C40.181 8.28 40.1597 8.312 40.1064 8.376C40.053 8.42933 39.9997 8.48267 39.9464 8.536C39.797 8.65333 39.5837 8.81867 39.3064 9.032C39.029 9.23467 38.7464 9.44267 38.4584 9.656C38.181 9.85867 37.9464 10.04 37.7544 10.2C37.7117 10.232 37.6904 10.2533 37.6904 10.264C37.701 10.2747 37.733 10.264 37.7864 10.232ZM49.6146 1.304C49.9986 1.21867 50.3933 1.15467 50.7986 1.112C51.2146 1.05867 51.636 1.02667 52.0626 1.016C51.6253 1.02667 51.1933 1.05867 50.7666 1.112C50.3506 1.16533 49.9666 1.22933 49.6146 1.304ZM55.0386 1.288C54.6653 1.21333 54.2866 1.15467 53.9026 1.112C53.5293 1.05867 53.1613 1.02667 52.7986 1.016C53.1933 1.02667 53.5773 1.05333 53.9506 1.096C54.3346 1.13867 54.6973 1.20267 55.0386 1.288ZM48.9106 11.16C48.6546 11.1387 48.4093 11.0107 48.1746 10.776C47.94 10.5413 47.8226 10.248 47.8226 9.896C47.8226 9.62933 47.892 9.336 48.0306 9.016C48.1693 8.68533 48.34 8.35467 48.5426 8.024C48.756 7.68267 48.9693 7.37333 49.1826 7.096C49.0653 7.096 48.8733 7.112 48.6066 7.144C48.34 7.176 48.0786 7.208 47.8226 7.24C47.5773 7.26133 47.412 7.27733 47.3266 7.288C47.3053 7.288 47.284 7.29333 47.2626 7.304C47.252 7.304 47.236 7.304 47.2146 7.304C47.0866 7.304 47.0226 7.26667 47.0226 7.192C47.0226 7.11733 47.0973 7.032 47.2466 6.936C47.4066 6.82933 47.588 6.76 47.7906 6.728L49.7426 6.472C49.924 6.23733 50.18 5.93333 50.5106 5.56C50.852 5.18667 51.2306 4.78667 51.6466 4.36C52.0626 3.92267 52.484 3.496 52.9106 3.08C53.348 2.664 53.7586 2.296 54.1426 1.976C54.1 2.01867 54.004 2.09333 53.8546 2.2C53.7053 2.296 53.556 2.408 53.4066 2.536C53.4493 2.48267 53.5506 2.38667 53.7106 2.248C53.8813 2.10933 54.02 1.99733 54.1266 1.912C53.5506 1.912 52.9213 1.93333 52.2386 1.976C51.5666 2.008 50.9106 2.09867 50.2706 2.248C50.164 2.26933 49.9826 2.32267 49.7266 2.408C49.4706 2.49333 49.1773 2.61067 48.8466 2.76C48.5266 2.89867 48.2066 3.05867 47.8866 3.24C47.5666 3.41067 47.2893 3.60267 47.0546 3.816C46.8306 4.02933 46.6866 4.248 46.6226 4.472C46.6653 4.55733 46.6866 4.63733 46.6866 4.712C46.6866 4.86133 46.6173 4.936 46.4786 4.936C46.3506 4.936 46.2066 4.86133 46.0466 4.712C45.8973 4.552 45.8226 4.33867 45.8226 4.072C45.8226 3.93333 45.844 3.8 45.8866 3.672C46.004 3.32 46.196 3.016 46.4626 2.76L46.4306 2.776C46.388 2.79733 46.372 2.80267 46.3826 2.792C46.404 2.78133 46.436 2.76 46.4786 2.728L46.4626 2.76C46.9426 2.49333 47.4653 2.232 48.0306 1.976C48.6066 1.72 49.252 1.50667 49.9666 1.336C50.6813 1.16533 51.4813 1.08 52.3666 1.08C52.772 1.08 53.1986 1.10133 53.6466 1.144C54.0946 1.18667 54.564 1.256 55.0546 1.352C55.108 1.36267 55.1773 1.37333 55.2626 1.384C55.3586 1.39467 55.4226 1.4 55.4546 1.4H55.4706C55.4706 1.38933 55.348 1.35733 55.1026 1.304C55.0706 1.304 55.0493 1.29867 55.0386 1.288C55.1773 1.20267 55.2893 1.144 55.3746 1.112C55.46 1.08 55.54 1.064 55.6146 1.064C55.6893 1.064 55.8173 1.07467 55.9986 1.096C56.1906 1.11733 56.372 1.16 56.5426 1.224C56.7133 1.288 56.804 1.384 56.8146 1.512C57.06 1.53333 57.3106 1.54933 57.5666 1.56C57.8333 1.57067 58.1 1.576 58.3666 1.576C58.804 1.576 59.2306 1.56 59.6466 1.528C60.0733 1.496 60.4573 1.45867 60.7986 1.416C60.7666 1.58667 60.6653 1.752 60.4946 1.912C60.324 2.06133 60.0466 2.18933 59.6626 2.296C59.2786 2.392 58.756 2.44 58.0946 2.44C57.7533 2.44 57.364 2.424 56.9266 2.392C56.8093 2.38133 56.6493 2.36533 56.4466 2.344C56.244 2.312 56.084 2.30133 55.9666 2.312C55.604 2.568 55.1986 2.872 54.7506 3.224C54.3026 3.56533 53.8493 3.928 53.3906 4.312C52.932 4.68533 52.5053 5.05333 52.1106 5.416C51.716 5.768 51.396 6.08267 51.1506 6.36C51.5346 6.296 52.004 6.232 52.5586 6.168C53.124 6.104 53.6946 6.01333 54.2706 5.896H54.2866C54.34 5.896 54.3933 5.91733 54.4466 5.96C54.5106 6.00267 54.5533 6.024 54.5746 6.024C54.66 6.024 54.7293 6.08267 54.7826 6.2C54.836 6.31733 54.8626 6.40267 54.8626 6.456C54.8626 6.49867 54.7826 6.59467 54.6226 6.744C54.4733 6.88267 54.2813 7.048 54.0466 7.24C53.812 7.432 53.572 7.61867 53.3266 7.8C53.092 7.98133 52.884 8.136 52.7026 8.264C52.532 8.38133 52.436 8.44 52.4146 8.44C52.4146 8.38667 52.452 8.31733 52.5266 8.232C52.6013 8.136 52.6973 8.024 52.8146 7.896C53.0813 7.59733 53.2946 7.34667 53.4546 7.144C53.6146 6.93067 53.7106 6.79733 53.7426 6.744C53.6253 6.872 53.4866 7.03733 53.3266 7.24C53.1773 7.432 53.0013 7.62933 52.7986 7.832C52.9266 7.68267 53.0493 7.52267 53.1666 7.352C53.284 7.18133 53.38 7.03733 53.4546 6.92C53.5293 6.80267 53.5613 6.744 53.5506 6.744C53.3906 6.75467 53.156 6.77067 52.8466 6.792C52.548 6.80267 52.2386 6.81867 51.9186 6.84C51.5986 6.86133 51.3213 6.88267 51.0866 6.904C50.852 6.92533 50.7133 6.936 50.6706 6.936C50.7133 6.94667 50.7613 6.952 50.8146 6.952C50.8786 6.952 50.948 6.952 51.0226 6.952C51.076 6.952 51.14 6.952 51.2146 6.952C51.3 6.952 51.3906 6.94667 51.4866 6.936C51.284 6.97867 51.1346 7.00533 51.0386 7.016C50.9533 7.016 50.804 7.02667 50.5906 7.048C50.0786 7.63467 49.7106 8.15733 49.4866 8.616C49.2733 9.07467 49.14 9.448 49.0866 9.736C49.044 10.024 49.0226 10.216 49.0226 10.312C49.0226 10.4827 49.0813 10.632 49.1986 10.76C49.3266 10.8773 49.3906 10.9733 49.3906 11.048C49.3906 11.08 49.3533 11.1067 49.2786 11.128C49.2146 11.1493 49.092 11.16 48.9106 11.16ZM49.4706 1.336C49.5026 1.336 49.5453 1.32533 49.5986 1.304H49.6146C49.6146 1.304 49.6093 1.304 49.5986 1.304C49.5453 1.32533 49.508 1.336 49.4866 1.336H49.4706ZM48.7506 1.544C48.868 1.50133 48.9853 1.464 49.1026 1.432C49.2306 1.4 49.3533 1.368 49.4706 1.336L48.7506 1.544ZM46.4786 2.728C46.7773 2.45067 47.1293 2.216 47.5346 2.024C47.94 1.832 48.3453 1.672 48.7506 1.544C48.3666 1.672 47.9986 1.832 47.6466 2.024C47.3053 2.20533 46.98 2.40267 46.6706 2.616L46.4786 2.728ZM55.0526 11.224C54.946 11.224 54.8233 11.176 54.6846 11.08C54.546 10.9947 54.4233 10.8987 54.3166 10.792C54.2206 10.6747 54.1726 10.584 54.1726 10.52C54.1726 10.456 54.194 10.424 54.2366 10.424C54.258 10.424 54.29 10.4347 54.3326 10.456C54.386 10.4667 54.4393 10.4827 54.4926 10.504C54.4286 10.3653 54.386 10.2213 54.3646 10.072C54.3646 10.0507 54.4233 9.93333 54.5406 9.72C54.658 9.50667 54.802 9.24533 54.9726 8.936C55.154 8.62667 55.33 8.31733 55.5006 8.008C55.682 7.69867 55.8313 7.43733 55.9486 7.224C56.0766 7 56.1406 6.88267 56.1406 6.872C56.1513 6.84 56.082 6.91467 55.9326 7.096C55.794 7.26667 55.6393 7.46933 55.4686 7.704C55.298 7.93867 55.1593 8.14667 55.0526 8.328C55.1913 8.04 55.3406 7.736 55.5006 7.416C55.6713 7.096 55.8953 6.71733 56.1726 6.28C56.45 5.832 56.8286 5.28267 57.3086 4.632C57.458 4.696 57.6233 4.776 57.8046 4.872C57.986 4.95733 58.1406 5.05333 58.2686 5.16C58.3966 5.26667 58.4606 5.37867 58.4606 5.496C58.4606 5.53867 58.4446 5.58667 58.4126 5.64C58.0393 6.152 57.6926 6.63733 57.3726 7.096C57.0633 7.55467 56.8126 7.93867 56.6206 8.248C56.4286 8.55733 56.3113 8.74933 56.2686 8.824C56.3433 8.78133 56.4286 8.73333 56.5246 8.68C56.6206 8.62667 56.7273 8.56267 56.8446 8.488L56.8126 8.52C56.7806 8.552 56.7486 8.59467 56.7166 8.648C56.6846 8.70133 56.6846 8.71733 56.7166 8.696C56.866 8.57867 57.1326 8.39733 57.5166 8.152C57.9006 7.90667 58.3006 7.65067 58.7166 7.384L58.7646 7.256C58.3593 7.55467 58.018 7.784 57.7406 7.944C57.5806 8.04 57.426 8.13067 57.2766 8.216C57.138 8.29067 57.01 8.37067 56.8926 8.456C57.0206 8.34933 57.1753 8.23733 57.3566 8.12C57.538 8.00267 57.762 7.864 58.0286 7.704C58.114 7.65067 58.226 7.58133 58.3646 7.496C58.5033 7.41067 58.6473 7.31467 58.7966 7.208L58.7646 7.256L59.1966 6.936L58.7966 7.208L59.0686 6.648C58.9833 6.66933 58.962 6.61067 59.0046 6.472C59.0473 6.33333 59.1433 6.184 59.2926 6.024C59.4526 5.85333 59.6393 5.752 59.8526 5.72C59.9273 5.70933 60.034 5.76267 60.1726 5.88C60.322 5.99733 60.45 6.12533 60.5566 6.264C60.6633 6.40267 60.6846 6.49867 60.6206 6.552C60.3966 6.73333 60.1993 6.968 60.0286 7.256C59.8686 7.544 59.73 7.84267 59.6126 8.152C59.4953 8.45067 59.3993 8.73333 59.3246 9C59.25 9.256 59.1966 9.45333 59.1646 9.592C59.666 9.208 60.1086 8.84533 60.4926 8.504C60.8873 8.16267 61.25 7.79467 61.5806 7.4C61.922 7.00533 62.2633 6.536 62.6046 5.992C62.6046 5.93867 62.5993 5.87467 62.5886 5.8C62.578 5.71467 62.5726 5.61867 62.5726 5.512C62.5726 5.39467 62.5833 5.26133 62.6046 5.112C62.626 4.96267 62.674 4.81867 62.7486 4.68C62.834 4.49867 62.9246 4.376 63.0206 4.312C63.1273 4.23733 63.2286 4.2 63.3246 4.2C63.4846 4.2 63.6233 4.26933 63.7406 4.408C63.8686 4.536 63.9326 4.648 63.9326 4.744C63.9433 4.95733 63.89 5.22933 63.7726 5.56C63.666 5.88 63.5486 6.2 63.4206 6.52C63.2926 6.84 63.1913 7.10667 63.1166 7.32C63.0846 7.40533 63.0526 7.448 63.0206 7.448C62.978 7.448 62.9353 7.38933 62.8926 7.272C62.85 7.144 62.8233 7.05333 62.8126 7C62.546 7.39467 62.2473 7.784 61.9166 8.168C61.586 8.552 61.2553 8.904 60.9246 9.224C60.6046 9.544 60.3113 9.81067 60.0446 10.024C60.002 10.312 59.8686 10.5787 59.6446 10.824C59.4313 11.0587 59.1913 11.176 58.9246 11.176C58.7113 11.176 58.5193 11.0853 58.3486 10.904C58.1886 10.7227 58.1086 10.5307 58.1086 10.328C58.1086 10.1893 58.13 10.072 58.1726 9.976C58.226 9.86933 58.2526 9.784 58.2526 9.72C58.2526 9.57067 58.2686 9.37333 58.3006 9.128C58.3326 8.88267 58.386 8.61067 58.4606 8.312C58.4606 8.29067 58.4606 8.27467 58.4606 8.264C58.4713 8.24267 58.4766 8.22667 58.4766 8.216C58.146 8.504 57.8313 8.77067 57.5326 9.016C57.234 9.26133 56.9886 9.45867 56.7966 9.608L55.9006 10.328C55.9326 10.3493 55.97 10.3813 56.0126 10.424C56.0553 10.4667 56.0766 10.5147 56.0766 10.568C56.0766 10.632 56.0073 10.7173 55.8686 10.824C55.7406 10.92 55.5966 11.0107 55.4366 11.096C55.2766 11.1813 55.1486 11.224 55.0526 11.224ZM59.3086 9.656C59.554 9.496 59.842 9.27733 60.1726 9C60.514 8.712 60.8073 8.43467 61.0526 8.168C61.5433 7.63467 62.0126 7.048 62.4606 6.408C62.354 6.536 62.21 6.70667 62.0286 6.92C61.8473 7.13333 61.6606 7.352 61.4686 7.576C61.2873 7.78933 61.1273 7.97067 60.9886 8.12C60.5833 8.57867 60.2153 8.92 59.8846 9.144C59.5646 9.368 59.378 9.50133 59.3246 9.544C59.282 9.56533 59.2553 9.59733 59.2446 9.64C59.2446 9.68267 59.266 9.688 59.3086 9.656ZM58.8286 7.304L58.8606 7.288L58.8926 7.192L58.8286 7.304ZM64.0763 11.112C63.8416 11.112 63.5909 11.0213 63.3243 10.84C63.0576 10.6587 62.8283 10.4453 62.6363 10.2C62.4549 9.95467 62.3643 9.73067 62.3643 9.528C62.3643 9.144 62.4763 8.73333 62.7003 8.296C62.9349 7.848 63.2336 7.41067 63.5963 6.984C63.9696 6.55733 64.3643 6.17867 64.7803 5.848C65.1963 5.51733 65.5963 5.27733 65.9803 5.128C66.0869 5.08533 66.1829 5.05867 66.2682 5.048C66.3536 5.03733 66.4176 5.032 66.4603 5.032C66.5883 5.032 66.7376 5.12267 66.9083 5.304C67.0789 5.47467 67.2336 5.66133 67.3723 5.864C67.5109 6.06667 67.5909 6.22133 67.6123 6.328C67.6123 6.49867 67.5109 6.70667 67.3083 6.952C67.1163 7.18667 66.8603 7.432 66.5403 7.688C66.2203 7.93333 65.8736 8.16267 65.5003 8.376C65.1376 8.58933 64.7856 8.76 64.4443 8.888C64.1029 9.00533 63.8096 9.05867 63.5643 9.048C63.3936 9.35733 63.3083 9.61333 63.3083 9.816C63.3083 9.92267 63.3349 10.0187 63.3883 10.104C63.4416 10.1787 63.5483 10.2107 63.7083 10.2C63.9643 10.1147 64.2843 9.96 64.6683 9.736C65.0523 9.512 65.4629 9.26133 65.9003 8.984C66.3483 8.696 66.7856 8.41867 67.2123 8.152C67.6496 7.87467 68.0389 7.64533 68.3803 7.464C68.5616 7.368 68.6949 7.32 68.7803 7.32C68.8549 7.32 68.8923 7.34667 68.8923 7.4C68.8923 7.44267 68.8443 7.512 68.7483 7.608C68.6629 7.704 68.5296 7.8 68.3483 7.896C68.2523 7.94933 68.1456 8.01333 68.0283 8.088C67.9109 8.16267 67.7883 8.248 67.6603 8.344C67.3616 8.55733 67.0416 8.80267 66.7003 9.08C66.3696 9.35733 66.0336 9.63467 65.6923 9.912C65.3616 10.1893 65.0523 10.4347 64.7643 10.648C64.4869 10.8613 64.2576 11.016 64.0763 11.112ZM63.9003 8.52C64.2203 8.40267 64.5616 8.23733 64.9243 8.024C65.2869 7.81067 65.6283 7.58667 65.9483 7.352C66.2683 7.10667 66.5243 6.888 66.7163 6.696L66.7963 6.616C66.7963 6.59467 66.7323 6.632 66.6043 6.728L65.2603 7.72C65.2496 7.73067 65.2336 7.736 65.2123 7.736C65.2016 7.736 65.2069 7.72533 65.2283 7.704C65.2496 7.672 65.2869 7.64 65.3403 7.608C65.5536 7.45867 65.7723 7.29333 65.9963 7.112C66.2203 6.92 66.4336 6.73867 66.6363 6.568C66.8923 6.36533 67.0203 6.24267 67.0203 6.2C66.7749 6.2 66.4603 6.31733 66.0763 6.552C65.6923 6.78667 65.3029 7.08 64.9083 7.432C64.5243 7.784 64.1883 8.14667 63.9003 8.52ZM68.8883 11.432C68.5896 11.1867 68.3336 10.9573 68.1203 10.744C67.9176 10.5307 67.8163 10.3227 67.8163 10.12C67.8163 10.0667 67.8216 10.024 67.8323 9.992C67.9389 9.61867 68.1309 9.176 68.4083 8.664C68.6963 8.152 69.0323 7.60267 69.4163 7.016C69.8109 6.41867 70.2269 5.82133 70.6643 5.224C71.1016 4.616 71.5283 4.04 71.9443 3.496C72.3709 2.94133 72.7603 2.45067 73.1123 2.024C73.4643 1.58667 73.7469 1.24533 73.9603 1C74.1736 0.754667 74.2856 0.632 74.2963 0.632C74.4029 0.664 74.5629 0.770666 74.7763 0.952C74.9896 1.12267 75.1336 1.29867 75.2083 1.48C75.2296 1.50133 75.2403 1.52267 75.2403 1.544C75.2509 1.672 75.3256 1.78933 75.4643 1.896C75.6029 2.00267 75.6723 2.12 75.6723 2.248C75.6723 2.61067 75.5336 3.00533 75.2563 3.432C74.9789 3.848 74.6163 4.27467 74.1683 4.712C73.7203 5.14933 73.2349 5.58133 72.7123 6.008C72.1896 6.424 71.6723 6.81333 71.1603 7.176C70.6589 7.528 70.2216 7.83733 69.8483 8.104C69.5283 8.552 69.3363 8.952 69.2723 9.304C69.2189 9.656 69.1976 9.91733 69.2083 10.088C69.7309 9.736 70.2269 9.34133 70.6963 8.904C70.8136 8.808 70.9843 8.67467 71.2083 8.504C71.4429 8.32267 71.6829 8.14667 71.9283 7.976C72.1736 7.80533 72.3603 7.68267 72.4883 7.608C72.6056 7.544 72.6963 7.49067 72.7603 7.448C72.8349 7.40533 72.8296 7.416 72.7443 7.48C72.4883 7.68267 72.1469 7.93867 71.7203 8.248C72.3283 7.84267 72.9363 7.544 73.5443 7.352C73.6616 7.30933 73.7523 7.288 73.8163 7.288C73.9229 7.288 73.9176 7.34667 73.8003 7.464C73.6829 7.57067 73.5443 7.68267 73.3843 7.8C72.6483 8.33333 71.8909 8.89333 71.1123 9.48C70.3336 10.0667 69.5923 10.7173 68.8883 11.432ZM70.4883 7.224C70.8936 6.92533 71.2776 6.60533 71.6403 6.264C72.0029 5.912 72.3656 5.57067 72.7283 5.24C73.3576 4.64267 73.8643 4.06133 74.2483 3.496C74.6429 2.93067 74.8936 2.42933 75.0003 1.992C74.8083 2.20533 74.5469 2.49867 74.2163 2.872C73.8963 3.23467 73.5389 3.64533 73.1443 4.104C72.7496 4.552 72.3443 5.016 71.9283 5.496C71.5229 5.976 71.1389 6.43467 70.7763 6.872C70.7443 6.904 70.7016 6.952 70.6483 7.016C70.6056 7.06933 70.5523 7.13867 70.4883 7.224ZM69.4803 10.248C69.5976 10.1307 69.7469 9.992 69.9283 9.832C70.1096 9.672 70.3176 9.47467 70.5523 9.24C70.6589 9.13333 70.8189 8.984 71.0323 8.792C71.2563 8.6 71.4856 8.41867 71.7203 8.248C71.2936 8.54667 70.9203 8.824 70.6003 9.08C70.2803 9.336 69.9869 9.576 69.7203 9.8L69.4963 10.072C69.4323 10.1467 69.4056 10.2053 69.4163 10.248C69.4269 10.2907 69.4483 10.2907 69.4803 10.248ZM73.6684 11.272C73.6044 11.272 73.503 11.1973 73.3644 11.048C73.2364 10.9093 73.103 10.7547 72.9644 10.584C72.8364 10.4027 72.7404 10.2693 72.6764 10.184C72.7724 9.768 72.9377 9.336 73.1724 8.888C73.4177 8.42933 73.7004 7.98133 74.0204 7.544C74.3404 7.10667 74.6604 6.70133 74.9804 6.328C75.311 5.95467 75.599 5.64 75.8444 5.384C75.663 5.52267 75.471 5.704 75.2684 5.928C75.0657 6.14133 74.927 6.28533 74.8524 6.36C74.7244 6.488 74.5964 6.616 74.4684 6.744C74.3404 6.86133 74.223 6.97867 74.1164 7.096C74.4364 6.70133 74.751 6.33867 75.0604 6.008C75.3804 5.67733 75.6097 5.45867 75.7484 5.352C75.7804 5.32 75.823 5.28267 75.8764 5.24C75.9404 5.19733 76.0097 5.17067 76.0844 5.16L76.2124 5.016C76.5004 5.02667 76.8097 5.11733 77.1404 5.288C77.471 5.448 77.7537 5.66133 77.9884 5.928C78.2337 6.184 78.3617 6.47733 78.3724 6.808C78.3724 6.85067 78.351 6.89333 78.3084 6.936C78.2657 6.968 78.2337 6.94667 78.2124 6.872C78.1377 6.712 78.0524 6.568 77.9564 6.44C77.8604 6.312 77.7537 6.21067 77.6364 6.136C77.5297 6.072 77.4177 6.04 77.3004 6.04C77.1724 6.04 77.055 6.08267 76.9484 6.168C76.735 6.328 76.479 6.568 76.1804 6.888C75.8924 7.19733 75.599 7.53333 75.3004 7.896C75.0124 8.25867 74.751 8.61067 74.5164 8.952C74.2924 9.29333 74.1377 9.576 74.0524 9.8C74.1164 9.72533 74.2284 9.61867 74.3884 9.48C74.5484 9.34133 74.719 9.20267 74.9004 9.064C75.0817 8.91467 75.2364 8.792 75.3644 8.696C75.407 8.664 75.4977 8.6 75.6364 8.504C75.775 8.408 75.919 8.30667 76.0684 8.2C76.2284 8.09333 76.3564 8.01333 76.4524 7.96C76.4524 7.98133 76.3884 8.04 76.2604 8.136C76.143 8.232 75.999 8.33867 75.8284 8.456C75.6577 8.57333 75.4977 8.68 75.3484 8.776C75.2097 8.872 75.1244 8.936 75.0924 8.968C74.975 9.07467 74.8364 9.19733 74.6764 9.336C74.527 9.47467 74.3884 9.60267 74.2604 9.72C74.1324 9.83733 74.047 9.92267 74.0044 9.976C73.983 10.0187 73.9777 10.0453 73.9884 10.056C73.999 10.0667 74.0204 10.0507 74.0524 10.008C74.1484 9.86933 74.2924 9.72 74.4844 9.56C74.6764 9.4 74.8844 9.24 75.1084 9.08C75.343 8.90933 75.551 8.75467 75.7324 8.616C75.9457 8.456 76.1377 8.31733 76.3084 8.2C76.4897 8.072 76.6497 7.95467 76.7884 7.848C76.799 7.624 76.879 7.46933 77.0284 7.384C77.1884 7.29867 77.311 7.272 77.3964 7.304C77.4604 7.32533 77.5564 7.368 77.6844 7.432C77.823 7.48533 77.9457 7.55467 78.0524 7.64C78.159 7.71467 78.191 7.8 78.1484 7.896C78.0737 8.06667 78.015 8.33333 77.9724 8.696C77.9404 9.048 77.9244 9.37333 77.9244 9.672C77.9244 10.0987 78.0577 10.312 78.3244 10.312C78.463 10.312 78.6497 10.2373 78.8844 10.088C78.9697 10.0347 79.0337 10.008 79.0764 10.008C79.1084 10.008 79.1244 10.024 79.1244 10.056C79.1244 10.0987 79.0977 10.1627 79.0444 10.248C78.991 10.3227 78.9537 10.3707 78.9324 10.392C78.8044 10.5307 78.6497 10.6587 78.4684 10.776C78.2977 10.8827 78.1217 10.936 77.9404 10.936C77.8657 10.936 77.791 10.9253 77.7164 10.904C77.6417 10.8827 77.567 10.8453 77.4924 10.792C77.2257 10.6107 77.0337 10.3333 76.9164 9.96C76.8097 9.58667 76.7564 9.26667 76.7564 9C76.7564 8.936 76.7564 8.87733 76.7564 8.824C76.767 8.77067 76.7777 8.72267 76.7884 8.68C76.671 8.776 76.4737 8.94133 76.1964 9.176C75.9297 9.4 75.631 9.656 75.3004 9.944C74.9697 10.2213 74.655 10.4827 74.3564 10.728C74.0577 10.9733 73.8284 11.1547 73.6684 11.272Z" fill="white"/>
<path d="M0.5 13H78.9964V13.8H0.5V13Z" fill="white"/>
</svg>
